# xmcd
#
# Track frame offsets:
#	150
#	16588
#	29864
#	42805
#	60035
#	73435
#	89656
#	104510
#	125929
#	140494
#	155961
#	174231
#	192355
#	207118
#	218575
#	235219
#
# Disc length: 3299 seconds
#
# Revision: 1
# Processed by: cddbd v1.5.2PL0 Copyright (c) Steve Scherf et al.
# Submitted via: audiograbber 1.83.01
#
DISCID=ec0ce110
DTITLE=TSP Country - TSP Country 01
DYEAR=2005
DGENRE=Country
TTITLE0=That's What Makes It Country - Kevin Chauvette
TTITLE1=Get Out Of The Judgement Seat - Cary Rutledge
TTITLE2=Just A Matter Of Time Cowboy - Jerry Bogan
TTITLE3=I Will Follow You - Jim Black
TTITLE4=Fallen Angel - Jason McAllister
TTITLE5=Cadillac Jones - Bobwire
TTITLE6=Time Waits For No Man - Derek McCorkell
TTITLE7=Take You Home - Tim Buppert
TTITLE8=Love Rains Down - Jim Black
TTITLE9=You Chased My Demons Away - Jack Gordon
TTITLE10=The One That She Calls Dad - Kevin Chauvette
TTITLE11=Girls Night Out - Bird and Tines
TTITLE12=Drunk On A Saturday Night - Bobwire
TTITLE13=On That Day - Billy Greene
TTITLE14=Wild Ride - Laurelyn Carter
TTITLE15=She's The Boss - Bird and Tines
EXTD=YEAR: 2005
EXTT0=
EXTT1=
EXTT2=
EXTT3=
EXTT4=
EXTT5=
EXTT6=
EXTT7=
EXTT8=
EXTT9=
EXTT10=
EXTT11=
EXTT12=
EXTT13=
EXTT14=
EXTT15=
PLAYORDER=
